<mxfile host="app.diagrams.net" modified="2024-04-24T09:28:12.994Z" agent="Mozilla/5.0 (Windows NT 10.0; Win64; x64) AppleWebKit/537.36 (KHTML, like Gecko) Chrome/124.0.0.0 Safari/537.36" etag="gNGPGHqFxNxaS1uiDbXe" version="24.2.8" type="device">
  <diagram name="Page-1" id="H2ZRNcr_BJEOI7gZgPGw">
    <mxGraphModel dx="1221" dy="652" grid="1" gridSize="10" guides="1" tooltips="1" connect="1" arrows="1" fold="1" page="1" pageScale="1" pageWidth="850" pageHeight="1100" math="0" shadow="0">
      <root>
        <mxCell id="0" />
        <mxCell id="1" parent="0" />
        <mxCell id="3iwfKOWMClkCP_aGBrJT-1" value="" style="ellipse;html=1;shape=startState;fillColor=#000000;strokeColor=#ff0000;" parent="1" vertex="1">
          <mxGeometry x="170" y="400" width="30" height="30" as="geometry" />
        </mxCell>
        <mxCell id="3iwfKOWMClkCP_aGBrJT-2" value="" style="edgeStyle=orthogonalEdgeStyle;html=1;verticalAlign=bottom;endArrow=open;endSize=8;strokeColor=#ff0000;rounded=0;" parent="1" source="3iwfKOWMClkCP_aGBrJT-1" edge="1">
          <mxGeometry relative="1" as="geometry">
            <mxPoint x="185" y="490" as="targetPoint" />
          </mxGeometry>
        </mxCell>
        <mxCell id="3iwfKOWMClkCP_aGBrJT-7" value="" style="edgeStyle=orthogonalEdgeStyle;rounded=0;orthogonalLoop=1;jettySize=auto;html=1;" parent="1" source="3iwfKOWMClkCP_aGBrJT-3" target="3iwfKOWMClkCP_aGBrJT-4" edge="1">
          <mxGeometry relative="1" as="geometry" />
        </mxCell>
        <mxCell id="3iwfKOWMClkCP_aGBrJT-3" value="HCP logs in" style="html=1;whiteSpace=wrap;" parent="1" vertex="1">
          <mxGeometry x="130" y="490" width="110" height="50" as="geometry" />
        </mxCell>
        <mxCell id="3iwfKOWMClkCP_aGBrJT-4" value="" style="rhombus;whiteSpace=wrap;html=1;fontColor=#000000;fillColor=#ffffc0;strokeColor=#ff0000;" parent="1" vertex="1">
          <mxGeometry x="145" y="580" width="80" height="40" as="geometry" />
        </mxCell>
        <mxCell id="3iwfKOWMClkCP_aGBrJT-5" value="[wrong credentials]" style="edgeStyle=orthogonalEdgeStyle;html=1;align=left;verticalAlign=bottom;endArrow=open;endSize=8;strokeColor=#ff0000;rounded=0;" parent="1" source="3iwfKOWMClkCP_aGBrJT-4" target="3iwfKOWMClkCP_aGBrJT-3" edge="1">
          <mxGeometry x="-1" relative="1" as="geometry">
            <mxPoint x="360" y="510" as="targetPoint" />
            <Array as="points">
              <mxPoint x="361" y="600" />
              <mxPoint x="361" y="515" />
            </Array>
          </mxGeometry>
        </mxCell>
        <mxCell id="3iwfKOWMClkCP_aGBrJT-6" value="[correct credentials]" style="edgeStyle=orthogonalEdgeStyle;html=1;align=left;verticalAlign=top;endArrow=open;endSize=8;strokeColor=#ff0000;rounded=0;" parent="1" source="3iwfKOWMClkCP_aGBrJT-4" edge="1">
          <mxGeometry x="-1" relative="1" as="geometry">
            <mxPoint x="190" y="680" as="targetPoint" />
            <mxPoint as="offset" />
          </mxGeometry>
        </mxCell>
        <mxCell id="3iwfKOWMClkCP_aGBrJT-10" value="" style="edgeStyle=orthogonalEdgeStyle;rounded=0;orthogonalLoop=1;jettySize=auto;html=1;" parent="1" source="3iwfKOWMClkCP_aGBrJT-8" target="3iwfKOWMClkCP_aGBrJT-9" edge="1">
          <mxGeometry relative="1" as="geometry" />
        </mxCell>
        <mxCell id="3iwfKOWMClkCP_aGBrJT-8" value="Accesses the collaboration tool they seek to use." style="html=1;whiteSpace=wrap;" parent="1" vertex="1">
          <mxGeometry x="140" y="680" width="110" height="50" as="geometry" />
        </mxCell>
        <mxCell id="3iwfKOWMClkCP_aGBrJT-14" value="" style="edgeStyle=orthogonalEdgeStyle;rounded=0;orthogonalLoop=1;jettySize=auto;html=1;" parent="1" source="3iwfKOWMClkCP_aGBrJT-9" target="3iwfKOWMClkCP_aGBrJT-13" edge="1">
          <mxGeometry relative="1" as="geometry" />
        </mxCell>
        <mxCell id="3iwfKOWMClkCP_aGBrJT-9" value="They share/recieve relevant information/&lt;div&gt;documentation&lt;/div&gt;" style="html=1;whiteSpace=wrap;" parent="1" vertex="1">
          <mxGeometry x="140" y="780" width="110" height="50" as="geometry" />
        </mxCell>
        <mxCell id="3iwfKOWMClkCP_aGBrJT-12" value="" style="ellipse;html=1;shape=endState;fillColor=#000000;strokeColor=#ff0000;" parent="1" vertex="1">
          <mxGeometry x="180" y="960" width="30" height="30" as="geometry" />
        </mxCell>
        <mxCell id="3iwfKOWMClkCP_aGBrJT-15" value="" style="edgeStyle=orthogonalEdgeStyle;rounded=0;orthogonalLoop=1;jettySize=auto;html=1;" parent="1" source="3iwfKOWMClkCP_aGBrJT-13" target="3iwfKOWMClkCP_aGBrJT-12" edge="1">
          <mxGeometry relative="1" as="geometry" />
        </mxCell>
        <mxCell id="3iwfKOWMClkCP_aGBrJT-13" value="Log out" style="html=1;whiteSpace=wrap;" parent="1" vertex="1">
          <mxGeometry x="140" y="870" width="110" height="50" as="geometry" />
        </mxCell>
      </root>
    </mxGraphModel>
  </diagram>
</mxfile>
